<svg xmlns="http://www.w3.org/2000/svg" version="1.1" viewBox="-5.0 -10.0 110.0 135.0">
    <path d="m83.605 51.652-22.098 12.758v25.527l10.027-5.7891c0.03125-0.019532 0.0625-0.039063 0.09375-0.058594l11.977-6.9141zm-7.4961-6.4688 5.6523 3.2617-22.105 12.762-5.6523-3.2617zm-25.797 10.633-3.418-1.9727 22.109-12.766 2.6289 1.5195-0.003906 0.003906 0.78516 0.45313-22.105 12.762zm-5.2578 6.6094 3.4023 1.9648v-5.375l-3.4023-1.9648zm4.2188 6.707-6.8828-3.9727c-0.61719-0.30078-1.043-0.93359-1.043-1.668v-8.582l-5.6406-3.2578v25.523l11.977 6.9141-0.003906 0.003906 10.121 5.8438v-25.527l-5.6406-3.2578v6.4414c0 1.0234-0.82812 1.8555-1.8555 1.8555-0.38281 0-0.74219-0.11719-1.0352-0.31641zm-17.273-5.3828-5.4766-3.1641-0.003907 0.003906-12.902-7.4492c-0.59375-0.34375-0.92188-0.96484-0.92188-1.6016h-0.003906v-29.797c0-0.73438 0.42578-1.3672 1.043-1.668l12.785-7.3828c0.035157-0.019531 0.066407-0.039062 0.10156-0.054687l12.805-7.3945c0.59766-0.34375 1.3125-0.31641 1.8672 0.015624l9.3125 5.375 0.03125 0.015626 3.5391 2.043 0.003907-0.003906 12.902 7.4492c0.59375 0.34375 0.92188 0.96484 0.92188 1.6016h0.003906v14.492l1.9102 1.1016 0.027343 0.015625 3.5391 2.043 0.003906-0.003906 12.879 7.4375c0.125 0.070312 0.24219 0.15625 0.34766 0.25391l0.023437 0.019531 0.046875 0.046875c0.15234 0.15625 0.27344 0.33594 0.36328 0.52734 0.10937 0.23828 0.16406 0.48828 0.16797 0.73828v0.027344h0.003906v29.797c0 0.73438-0.42578 1.3672-1.043 1.668l-12.785 7.3828c-0.035157 0.019532-0.066407 0.039063-0.10156 0.054688l-12.652 7.3047c-0.30469 0.21484-0.67188 0.34375-1.0742 0.34375-0.40234 0-0.76953-0.12891-1.0742-0.34375l-12.754-7.3633-0.003907 0.003906-12.902-7.4492c-0.59375-0.34375-0.92188-0.96484-0.92188-1.6016h-0.003906v-14.492zm9.3867-17.52 6.2969-3.6367c0.03125-0.019531 0.0625-0.039062 0.09375-0.058594l11.879-6.8594 5.6562 3.2656-22.109 12.766-5.6523-3.2617 3.6055-2.082c0.078125-0.039062 0.15625-0.082031 0.22656-0.13281zm22.914-21.285-22.098 12.758v3.7852l3.625-2.0938c0.035156-0.019531 0.066406-0.039062 0.10156-0.054687l12.805-7.3945c0.59766-0.34375 1.3125-0.31641 1.8672 0.015626l3.6953 2.1328v-9.1484zm-40.406 0.0625 22.113-12.766-5.6562-3.2656-11.879 6.8594-0.09375 0.058593-10.133 5.8516 5.6523 3.2617zm32.91-6.5273-22.109 12.766 5.6562 3.2656 22.109-12.766zm-25.801 10.633 22.109-12.766-0.78516-0.45312 0.003906-0.003906-2.6289-1.5195-22.113 12.766 3.418 1.9727zm-5.2539 6.6094 3.4023 1.9648v-5.3828l-3.4023-1.9648zm4.2188 6.707c0.29688 0.19922 0.65234 0.31641 1.0352 0.31641 1.0234 0 1.8555-0.82812 1.8555-1.8555v-6.4453l5.6406 3.2578v5.9258l-5.4492 3.1484c-0.61719 0.30078-1.043 0.93359-1.043 1.668v11.043l-3.6289-2.0938 0.003906-0.003906-11.977-6.9141v-25.527l5.6406 3.2578v8.5859c0 0.73438 0.42578 1.3672 1.043 1.668l6.8828 3.9727z" fill-rule="evenodd"/>
</svg>